<svg id="a1009a0a-5a0d-4994-a0ed-caea9dc64705" data-name="图层 1" xmlns="http://www.w3.org/2000/svg"
    viewBox="0 0 13.22 13.22">
    <title>未标题-1</title>
    <g id="ec1aa203-9f93-41aa-910a-f5f1be40daeb" data-name="LINE">
        <polyline points="11.37 11.05 8.99 8.83 6.61 6.61 4.23 4.39 1.85 2.17"
            style="fill:none;stroke:#000;stroke-linecap:round;stroke-linejoin:round;stroke-width:0.2px" />
    </g>
    <g id="a85486f2-b40c-4e73-a993-157d58533ce8" data-name="LINE">
        <polyline points="1.56 10.71 4.08 8.66 6.61 6.61 9.13 4.56 11.66 2.51"
            style="fill:none;stroke:#000;stroke-linecap:round;stroke-linejoin:round;stroke-width:0.2px" />
    </g>
    <g id="aa092486-6468-4054-9c6b-bc82189d3638" data-name="CIRCLE">
        <path
            d="M.49,7A6.46,6.46,0,0,1,1,4.47,6.59,6.59,0,0,1,4.47,1,6.53,6.53,0,0,1,9.53,1,6.59,6.59,0,0,1,13,4.47a6.53,6.53,0,0,1,0,5.06A6.59,6.59,0,0,1,9.53,13a6.53,6.53,0,0,1-5.06,0A6.59,6.59,0,0,1,1,9.53,6.46,6.46,0,0,1,.49,7Z"
            transform="translate(-0.39, -0.39)"
            style="fill:none;stroke:#000;stroke-linecap:round;stroke-linejoin:round;stroke-width:0.2px" />
    </g>
</svg>