<?xml version="1.0" encoding="UTF-8"?>
<svg id="_图层_1" data-name="图层_1" xmlns="http://www.w3.org/2000/svg" baseProfile="tiny" version="1.2" viewBox="0 0 374.5 592.85">
  <!-- Generator: Adobe Illustrator 29.0.0, SVG Export Plug-In . SVG Version: 2.1.0 Build 186)  -->
  <g id="CIRCLE">
    <path d="M187.25,355.07c14.78,0,26.76,11.98,26.76,26.76s-11.98,26.76-26.76,26.76-26.76-11.98-26.76-26.76,11.98-26.76,26.76-26.76M187.25,353.57c-15.59,0-28.26,12.68-28.26,28.26s12.68,28.26,28.26,28.26,28.26-12.68,28.26-28.26-12.68-28.26-28.26-28.26h0Z" fill="#231815"/>
  </g>
  <g id="CIRCLE1" data-name="CIRCLE">
    <path d="M53.43,185c14.78,0,26.76,11.98,26.76,26.76s-11.98,26.76-26.76,26.76-26.76-11.98-26.76-26.76,11.98-26.76,26.76-26.76M53.43,183.5c-15.59,0-28.26,12.68-28.26,28.26s12.68,28.26,28.26,28.26,28.26-12.68,28.26-28.26-12.68-28.26-28.26-28.26h0Z" fill="#231815"/>
  </g>
  <g id="CIRCLE2" data-name="CIRCLE">
    <path d="M321.07,185c14.78,0,26.76,11.98,26.76,26.76s-11.98,26.76-26.76,26.76-26.76-11.98-26.76-26.76,11.98-26.76,26.76-26.76M321.07,183.5c-15.59,0-28.26,12.68-28.26,28.26s12.68,28.26,28.26,28.26,28.26-12.68,28.26-28.26-12.68-28.26-28.26-28.26h0Z" fill="#231815"/>
  </g>
  <g id="LINE">
    <line x1="187.25" y1="592.85" x2="187.25" y2="408.6" fill="none" stroke="#231815" stroke-linecap="square" stroke-linejoin="bevel" stroke-width=".2"/>
  </g>
  <g id="LINE1" data-name="LINE">
    <line x1="321.07" y1=".75" x2="321.07" y2="185" fill="none" stroke="#231815" stroke-linecap="square" stroke-linejoin="bevel" stroke-width=".2"/>
  </g>
  <g id="CIRCLE3" data-name="CIRCLE">
    <path d="M187.25,185c14.78,0,26.76,11.98,26.76,26.76s-11.98,26.76-26.76,26.76-26.76-11.98-26.76-26.76,11.98-26.76,26.76-26.76M187.25,183.5c-15.59,0-28.26,12.68-28.26,28.26s12.68,28.26,28.26,28.26,28.26-12.68,28.26-28.26-12.68-28.26-28.26-28.26h0Z" fill="#231815"/>
  </g>
  <g id="LINE2" data-name="LINE">
    <line x1="187.25" y1=".75" x2="187.25" y2="185" fill="none" stroke="#231815" stroke-linecap="square" stroke-linejoin="bevel" stroke-width=".2"/>
  </g>
  <g id="LINE3" data-name="LINE">
    <line x1="53.43" y1=".75" x2="53.43" y2="185" fill="none" stroke="#231815" stroke-linecap="square" stroke-linejoin="bevel" stroke-width=".2"/>
  </g>
  <g id="LINE4" data-name="LINE">
    <line x1="136.48" y1="118.09" x2="187.25" y2="353.56" fill="none" stroke="#231815" stroke-linecap="square" stroke-linejoin="bevel" stroke-width=".2"/>
  </g>
</svg>