<?xml version="1.0" encoding="UTF-8"?>
<svg id="_图层_1" data-name="图层_1" xmlns="http://www.w3.org/2000/svg" baseProfile="tiny" version="1.2" viewBox="0 0 794.4 77.7">
  <!-- Generator: Adobe Illustrator 29.0.0, SVG Export Plug-In . SVG Version: 2.1.0 Build 186)  -->
  <path d="M136.5,12.7c0,35.9-29.1,65.1-65.1,65.1S6.3,48.6,6.3,12.7" fill="none" stroke="#231815" stroke-linecap="square" stroke-linejoin="bevel" stroke-width=".2"/>
  <path d="M266.7,12.7c0,35.9-29.1,65.1-65.1,65.1s-65.1-29.1-65.1-65.1" fill="none" stroke="#231815" stroke-linecap="square" stroke-linejoin="bevel" stroke-width=".2"/>
  <path d="M396.9,12.7c0,35.9-29.1,65.1-65.1,65.1s-65.1-29.1-65.1-65.1" fill="none" stroke="#231815" stroke-linecap="square" stroke-linejoin="bevel" stroke-width=".2"/>
  <path d="M527,12.7c0,35.9-29.1,65.1-65.1,65.1s-65.1-29.1-65.1-65.1" fill="none" stroke="#231815" stroke-linecap="square" stroke-linejoin="bevel" stroke-width=".2"/>
  <path d="M657.2,12.7c0,35.9-29.1,65.1-65.1,65.1s-65.1-29.1-65.1-65.1" fill="none" stroke="#231815" stroke-linecap="square" stroke-linejoin="bevel" stroke-width=".2"/>
  <path d="M787.4,12.7c0,35.9-29.1,65.1-65.1,65.1s-65.1-29.1-65.1-65.1" fill="none" stroke="#231815" stroke-linecap="square" stroke-linejoin="bevel" stroke-width=".2"/>
  <circle cx="6.3" cy="6.3" r="6.3" fill="none" stroke="#231815" stroke-linecap="square" stroke-linejoin="bevel" stroke-width=".2"/>
  <circle cx="787.4" cy="6.3" r="6.3" fill="none" stroke="#231815" stroke-linecap="square" stroke-linejoin="bevel" stroke-width=".2"/>
</svg>